<?xml version="1.0" encoding="utf-8"?>
<!-- Generator: Adobe Illustrator 23.1.1, SVG Export Plug-In . SVG Version: 6.00 Build 0)  -->
<svg version="1.1" id="圖層_1" xmlns="http://www.w3.org/2000/svg" xmlns:xlink="http://www.w3.org/1999/xlink" x="0px" y="0px"
	 viewBox="0 0 19 19" style="enable-background:new 0 0 19 19;" xml:space="preserve">
<style type="text/css">
	.st0{fill:#FFFFFF;}
</style>
<path class="st0" d="M18.7,17.3c0.4,0.4,0.4,1,0,1.4C18.5,18.9,18.3,19,18,19c-0.3,0-0.5-0.1-0.7-0.3l-7.8-7.8l-7.8,7.8
	C1.5,18.9,1.3,19,1,19s-0.5-0.1-0.7-0.3c-0.4-0.4-0.4-1,0-1.4l7.8-7.8L0.3,1.7c-0.4-0.4-0.4-1,0-1.4s1-0.4,1.4,0l7.8,7.8l7.8-7.8
	c0.4-0.4,1-0.4,1.4,0c0.4,0.4,0.4,1,0,1.4l-7.8,7.8L18.7,17.3z"/>
</svg>
