<?xml version="1.0" encoding="utf-8"?>
<!-- Generator: Adobe Illustrator 23.1.1, SVG Export Plug-In . SVG Version: 6.00 Build 0)  -->
<svg version="1.1" id="圖層_1" xmlns="http://www.w3.org/2000/svg" xmlns:xlink="http://www.w3.org/1999/xlink" x="0px" y="0px"
	 viewBox="0 0 19 16" style="enable-background:new 0 0 19 16;" xml:space="preserve">
<style type="text/css">
	.st0{fill:#12507E;}
</style>
<path class="st0" d="M18,2H1C0.4,2,0,1.6,0,1s0.4-1,1-1h17c0.6,0,1,0.4,1,1S18.6,2,18,2z"/>
<path class="st0" d="M18,16H1c-0.6,0-1-0.4-1-1s0.4-1,1-1h17c0.6,0,1,0.4,1,1S18.6,16,18,16z"/>
<path class="st0" d="M18,9H6.4c-0.6,0-1-0.4-1-1s0.4-1,1-1H18c0.6,0,1,0.4,1,1S18.6,9,18,9z"/>
</svg>
