<svg xmlns="http://www.w3.org/2000/svg" width="149" height="27" viewBox="0 0 149 27">
    <g fill="none" fill-rule="evenodd">
        <g fill="#135384">
            <g>
                <path d="M4.664.73c.506 0 .918.408.918.912V2.78c0 .502-.412.911-.918.911H3.9c-.507 0-.918.409-.918.911v18.526c0 .503.41.911.918.911h15.183c.508 0 .918.408.918.912v1.138c0 .503-.41.911-.918.911H.918C.412 27 0 26.592 0 26.09V1.642C0 1.138.412.73.918.73zm19.343 0c.512 0 .93.408.93.912v24.447c0 .503-.418.911-.93.911h-1.159c-.513 0-.928-.408-.928-.911v-3.962h-.003V4.603c0-.503-.416-.912-.929-.912H9.458c-.512 0-.928-.409-.928-.911V1.642c0-.504.416-.911.928-.911zM120 3c3.023 0 5.446 1.002 7.268 3.012 1.821 2.008 2.732 4.8 2.732 8.371 0 3.59-.916 6.424-2.746 8.502C125.422 24.962 123.004 26 120 26c-3.005 0-5.422-1.038-7.254-3.115-1.831-2.078-2.746-4.911-2.746-8.502 0-3.57.91-6.363 2.733-8.37C114.553 4.002 116.975 3 120 3zm26.683.637c.498 0 .916.167 1.254.498.338.332.508.725.508 1.18v.966c0 .456-.17.849-.508 1.18-.338.332-.756.498-1.254.498h-6.96c-.158 0-.239.067-.239.199v3.61c0 .132.081.198.24.198h5.615c.497 0 .916.167 1.254.498.339.331.509.724.509 1.18v1.023c0 .454-.17.848-.509 1.18-.338.331-.757.497-1.254.497h-5.616c-.158 0-.239.067-.239.198v4.18c0 .132.081.198.24.198h7.318c.476 0 .89.166 1.238.498.35.33.523.725.523 1.179v1.023c0 .456-.174.85-.523 1.18-.348.332-.762.498-1.238.498h-11.26c-.479 0-.892-.166-1.24-.498-.348-.33-.522-.724-.522-1.18V5.315c0-.455.174-.848.522-1.18.348-.331.761-.498 1.24-.498h10.901zM42.041 3c5.704 0 8.557 2.31 8.557 6.929 0 2.964-1.197 5.054-3.59 6.266-.114.057-.144.144-.085.26l3.962 7.072c.077.155.115.319.115.492 0 .154-.048.318-.143.491-.192.326-.47.49-.834.49h-2.498c-.517 0-1-.134-1.45-.404-.45-.269-.8-.635-1.048-1.097l-3.13-6.062c-.076-.116-.182-.174-.316-.174h-2.096c-.154 0-.23.067-.23.203v5.83c0 .463-.163.863-.488 1.199-.326.337-.728.505-1.206.505h-1.866c-.46 0-.857-.168-1.193-.505-.335-.336-.502-.736-.502-1.199V4.704c0-.462.167-.861.502-1.198.336-.337.733-.506 1.193-.506h6.346zm21.923 0c.497 0 .947.149 1.35.447.401.3.678.689.831 1.171l5.798 18.765c.038.135.057.261.057.376 0 .27-.086.51-.258.722-.249.346-.584.519-1.005.519h-2.124c-.497 0-.943-.154-1.335-.462-.391-.307-.655-.702-.79-1.183l-.773-3.205c-.039-.134-.134-.203-.287-.203H59.4c-.152 0-.24.069-.258.203l-.804 3.205c-.134.481-.397.876-.79 1.183-.391.308-.836.462-1.334.462h-1.951c-.421 0-.756-.173-1.005-.519-.172-.212-.258-.453-.258-.722 0-.115.02-.241.058-.376l5.797-18.765c.153-.482.43-.871.832-1.17.402-.299.861-.448 1.378-.448h2.899zm23.354 0c.456 0 .85.17 1.183.506.333.337.499.736.499 1.199v.98c0 .463-.166.863-.499 1.198-.333.338-.727.506-1.183.506h-4.022c-.134 0-.2.069-.2.203v15.704c0 .463-.167.863-.5 1.199-.332.337-.726.505-1.183.505h-1.854c-.476 0-.875-.168-1.198-.505-.323-.336-.484-.736-.484-1.199V7.592c0-.134-.077-.203-.229-.203h-3.965c-.475 0-.874-.168-1.198-.506-.323-.335-.485-.735-.485-1.197v-.981c0-.463.162-.862.485-1.2.324-.336.723-.505 1.198-.505h13.635zm20 0c.456 0 .85.17 1.182.506.333.337.5.736.5 1.199v.98c0 .463-.167.863-.5 1.198-.332.338-.726.506-1.182.506h-4.023c-.134 0-.2.069-.2.203v15.704c0 .463-.165.863-.497 1.199-.335.337-.73.505-1.186.505H99.56c-.476 0-.874-.168-1.198-.505-.324-.336-.485-.736-.485-1.199V7.592c0-.134-.076-.203-.228-.203h-3.965c-.475 0-.874-.168-1.198-.506-.323-.335-.485-.735-.485-1.197v-.981c0-.463.162-.862.485-1.2.324-.336.723-.505 1.198-.505h13.635zM120 7.54c-1.441 0-2.572.607-3.391 1.82-.82 1.214-1.23 2.887-1.23 5.023 0 2.174.41 3.892 1.23 5.154.819 1.261 1.95 1.893 3.391 1.893 1.44 0 2.575-.637 3.405-1.909.83-1.27 1.244-2.983 1.244-5.138 0-2.136-.415-3.81-1.244-5.023-.83-1.213-1.964-1.82-3.405-1.82zM12.73 7c3.356 0 5.033 1.47 5.033 4.41 0 1.886-.704 3.215-2.11 3.987-.068.036-.085.091-.052.164l2.331 4.502c.045.098.068.202.068.312 0 .098-.028.203-.084.312-.113.21-.277.313-.49.313h-8.43c-.269 0-.503-.107-.7-.321-.198-.214-.296-.469-.296-.764V8.084c0-.293.098-.548.296-.763.197-.213.431-.321.7-.321h3.734zm49.655-.073c-.038 0-.057.02-.057.057-.766 3.273-1.32 5.611-1.665 7.017l-.43 1.645c-.02.058-.01.11.028.158.038.05.087.073.144.073h4.018c.057 0 .105-.023.144-.073.038-.047.047-.1.028-.158L64.165 14c-.192-.77-.479-1.96-.861-3.566-.384-1.608-.66-2.758-.833-3.45-.019-.039-.048-.058-.086-.058zm-20.775.26h-2.125c-.154 0-.23.067-.23.202v5.486c0 .135.076.201.23.201h2.125c1.263 0 2.215-.264 2.857-.793.64-.53.962-1.314.962-2.354 0-1-.311-1.707-.933-2.121-.623-.414-1.584-.621-2.886-.621z" transform="translate(-147 -39) translate(147 39)"/>
            </g>
        </g>
    </g>
</svg>
